<svg xmlns="http://www.w3.org/2000/svg" width="55" height="55" fill="none" viewBox="0 0 55 55">
    <path fill="#2D510E" d="M27.5 55C42.688 55 55 42.688 55 27.5S42.688 0 27.5 0 0 12.312 0 27.5 12.312 55 27.5 55z"/>
    <path fill="#fff" d="M28.5 8.5c-.1-.2-.3-.4-.5-.5h-.7-.1c-.2.2-.4.3-.5.5-.9 1.4-9.9 16.2-8.6 24.4 1.3 8.2 8 13.8 8.9 14.5.1.1.2.1.3.2h.1c.1 0 .2.1.3.1h.1c.1 0 .2 0 .3-.1h.1c.1 0 .2-.1.3-.2.9-.7 7.5-6.4 8.8-14.5 1.2-8.3-8-23.1-8.8-24.4zm-8.4 24.1c-.9-5.6 3.8-15 6.5-19.9l.1 31.7c-2.2-2.1-5.7-6.4-6.6-11.8zm15.1 0c-.8 5.4-4.4 9.7-6.5 11.8l-.1-31.7c2.7 4.9 7.5 14.3 6.6 19.9z"/>
</svg>
