<svg xmlns="http://www.w3.org/2000/svg" width="24" height="24" fill="none" viewBox="0 0 24 24">
  <path fill="#fff"
    d="M12 2.4c-1.273 0-2.494.506-3.394 1.406-.9.9-1.406 2.12-1.406 3.394 0 1.273.506 2.494 1.406 3.394.9.9 2.121 1.406 3.394 1.406 1.273 0 2.494-.506 3.394-1.406.9-.9 1.406-2.121 1.406-3.394 0-1.273-.506-2.494-1.406-3.394-.9-.9-2.12-1.406-3.394-1.406zM8.4 7.2c0-.955.38-1.87 1.055-2.546C10.13 3.98 11.045 3.6 12 3.6c.955 0 1.87.38 2.546 1.054C15.22 5.33 15.6 6.245 15.6 7.2c0 .955-.38 1.87-1.054 2.545-.675.676-1.591 1.055-2.546 1.055-.955 0-1.87-.38-2.545-1.055C8.779 9.07 8.4 8.155 8.4 7.2zM6.01 13.2c-.315-.001-.628.06-.92.18-.293.12-.559.296-.783.52-.224.222-.402.487-.523.78-.121.291-.184.604-.184.92 0 2.03 1 3.56 2.562 4.556C7.7 21.136 9.774 21.6 12 21.6s4.3-.463 5.838-1.444c1.563-.996 2.562-2.528 2.562-4.556 0-.636-.253-1.247-.703-1.697-.45-.45-1.06-.703-1.697-.703H6.01zM4.8 15.6c0-.664.538-1.2 1.21-1.2H18c.318 0 .624.126.849.351.225.226.351.53.351.849 0 1.57-.746 2.74-2.008 3.544-1.284.82-3.11 1.256-5.192 1.256-2.082 0-3.908-.437-5.192-1.256C5.548 18.34 4.8 17.172 4.8 15.6z" />
</svg>
