<svg xmlns="http://www.w3.org/2000/svg" width="24" height="24" fill="none" viewBox="0 0 24 24">
  <path fill="#fff"
    d="M12 3c-.446-.334-.976-.538-1.53-.588-.556-.05-1.114.055-1.612.305-.498.249-.917.632-1.21 1.106-.293.474-.448 1.02-.448 1.577v1.8H6c-.318 0-.624.126-.849.351-.225.225-.351.53-.351.849V18c0 .955.38 1.87 1.054 2.546C6.53 21.22 7.445 21.6 8.4 21.6h7.8c.796 0 1.559-.316 2.121-.879.563-.562.879-1.325.879-2.121V8.4c0-.318-.127-.624-.352-.849-.225-.225-.53-.351-.848-.351h-1.2V5.4c0-.557-.155-1.103-.448-1.577-.293-.474-.712-.857-1.21-1.106-.499-.25-1.057-.355-1.612-.305-.554.05-1.085.254-1.53.588zM8.4 5.4c0-.477.19-.935.527-1.273.338-.337.795-.527 1.273-.527.477 0 .935.19 1.273.527.337.338.527.796.527 1.273v1.8H8.4V5.4zm4.4-1.498c.271-.18.586-.285.912-.3.326-.017.65.056.937.21.287.154.528.383.695.662.168.28.256.6.256.926v1.8h-2.4V5.4c0-.545-.145-1.056-.4-1.498zM8.4 20.4c-.637 0-1.247-.253-1.697-.703C6.253 19.247 6 18.637 6 18V8.4h7.2v10.2c0 .675.223 1.298.6 1.8H8.4zm9.6-1.8c0 .477-.19.935-.527 1.273-.338.337-.796.527-1.273.527-.478 0-.935-.19-1.273-.527-.338-.338-.527-.796-.527-1.273V8.4H18v10.2z" />
</svg>
