<svg xmlns="http://www.w3.org/2000/svg" width="42" height="38" fill="none" viewBox="0 0 42 38">
    <path fill="#8EA84F" d="M21.1 38c-.3 0-.5-.1-.7-.3L9 26.4c-.3-.3-9-7.7-9-14.4 0-3.5 1.1-6.4 3.3-8.6C5.5 1.2 8.5 0 11.9 0c3.7 0 7 2.5 9.1 5.2C23.1 2.6 26.3 0 30.1 0c3.2 0 6.2 1.1 8.3 3.1 2.3 2.2 3.5 5.2 3.5 8.8 0 6.7-8.6 14.1-9 14.4L21.8 37.7c-.2.2-.5.3-.7.3zM11.9 2.1s-.1 0 0 0C9 2.1 6.5 3 4.7 4.8 2.9 6.6 2 9.1 2 12c0 5.8 8.3 12.8 8.4 12.9l10.7 10.7 10.6-10.7c.1-.1 8.4-7.2 8.4-13 0-3-1-5.5-2.9-7.3-1.8-1.7-4.3-2.6-7-2.6-3.5 0-6.6 2.9-8.3 5.5-.3.3-.6.5-.9.5-.3 0-.7-.2-.8-.5-1.8-2.6-4.8-5.4-8.3-5.4z"/>
    <path fill="#8EA84F" fill-rule="evenodd" d="M22.7 11c.4 0 .8.2 1 .6l2.5 6.4h4.9c.6 0 1 .4 1 1s-.4 1-1 1h-5.6c-.4 0-.8-.2-.9-.6L22.9 15l-2.6 8.9c-.1.4-.4.6-.8.7-.4.1-.7-.1-1-.4L15.3 20h-4.5c-.6 0-1-.4-1-1s.4-1 1-1h5c.3 0 .6.1.8.4l2.3 3.1 2.8-9.7c.2-.5.6-.8 1-.8z" clip-rule="evenodd"/>
</svg>
