<svg xmlns="http://www.w3.org/2000/svg" width="26" height="24" fill="none" viewBox="0 0 26 24">
    <path fill="#8EA84F" d="M25.598 14.418c.116-.11.149-.277.083-.42-.066-.142-.216-.23-.377-.22-.162.01-4.005.276-7.516 1.797-.36.156-.71.325-1.054.503.568-.752 1.102-1.547 1.597-2.381 2.419-4.08 3.616-8.618 3.677-8.854.01-.032.014-.065.014-.1 0-.175-.127-.326-.304-.363-.131-.028-.264.014-.355.102-.182.172-3.623 3.46-6.04 7.538-.233.392-.453.789-.662 1.188.073-.886.097-1.678.097-2.326 0-1.543-.124-3.215-.37-4.97-.028-.203-.223-.347-.433-.319-.21.028-.358.216-.33.42.241 1.722.363 3.36.363 4.87 0 3.58-.693 6.247-1.131 7.576-.439-1.326-1.13-3.99-1.13-7.577 0-3.568.686-7.072 1.13-8.965.178.753.394 1.759.588 2.918.034.203.23.341.441.308.21-.033.352-.224.318-.428-.432-2.584-.971-4.426-.977-4.444C13.18.11 13.03 0 12.857 0s-.323.11-.37.27c-.015.053-1.53 5.257-1.53 10.612 0 .827.036 1.604.096 2.325-.21-.4-.43-.795-.661-1.187-2.396-4.04-5.796-7.306-6.035-7.532-.093-.096-.234-.139-.371-.107-.173.04-.294.19-.294.363 0 .034.005.068.014.1.066.254 1.263 4.78 3.677 8.852.495.835 1.029 1.63 1.597 2.382-.343-.178-.694-.347-1.054-.503C4.416 14.055.573 13.79.41 13.778c-.162-.01-.312.078-.378.22-.065.143-.032.31.083.42.053.05 1.322 1.244 3.231 2.497.176.116.415.071.535-.1.119-.17.073-.402-.103-.518-.916-.6-1.688-1.195-2.235-1.644 1.403.191 3.834.636 6.068 1.603 1.042.452 2.015 1.005 2.894 1.644.505.543.952.969 1.304 1.283-.557-.03-1.319-.111-2.216-.312-.935-.21-1.867-.514-2.77-.906-.661-.286-1.347-.637-2.037-1.042-.182-.106-.419-.05-.529.127-.11.176-.052.405.13.512.718.42 1.432.786 2.123 1.085.498.216 1.005.406 1.516.57-2.306.803-4.066 2.534-4.143 2.611-.098.097-.134.238-.093.368.04.13.15.228.286.257.07.015 1.114.23 2.485.23.877 0 1.887-.088 2.862-.372 1.444-.421 2.445-1.166 3.048-1.743v3.059c0 .206.173.373.385.373.213 0 .385-.167.385-.373v-3.06c.604.579 1.604 1.323 3.048 1.744.975.284 1.985.372 2.862.372 1.37 0 2.415-.215 2.485-.23.137-.029.246-.127.287-.257.04-.13.004-.27-.093-.368-.078-.077-1.838-1.808-4.144-2.61.512-.165 1.018-.355 1.517-.571 3.51-1.521 6.278-4.12 6.394-4.23zm-14.541 2.96l-.006-.006c-1.109-1.198-2.118-2.56-3-4.047-1.587-2.677-2.636-5.554-3.174-7.229 1.227 1.3 3.272 3.639 4.847 6.296.652 1.099 1.212 2.232 1.665 3.368.108.598.226 1.121.337 1.559.097.385.194.726.285 1.022-.28-.263-.603-.584-.954-.963zm-1.854 4.218c-1.546.45-3.239.357-4.194.245.732-.604 2.089-1.586 3.638-2.037.28-.082.565-.145.85-.19 1.06.232 1.933.308 2.529.326-.522.52-1.453 1.257-2.823 1.656zm4.786-4.277c.134-.529.245-1.051.338-1.561.453-1.136 1.012-2.268 1.663-3.366 1.575-2.657 3.62-4.996 4.847-6.296-.537 1.675-1.587 4.552-3.173 7.229-.882 1.488-1.892 2.85-3 4.047l-.006.006c-.352.38-.675.7-.955.963.091-.296.188-.637.286-1.022zm6.715 4.522c-.955.112-2.647.206-4.192-.245-1.371-.4-2.302-1.136-2.823-1.656.595-.018 1.468-.094 2.528-.326.286.045.571.108.85.19 1.546.45 2.904 1.433 3.637 2.037zm-4.584-2.97c-.897.2-1.658.282-2.216.312.353-.314.8-.74 1.305-1.283.878-.64 1.852-1.192 2.893-1.643 2.234-.968 4.664-1.413 6.068-1.604-1.083.886-3.044 2.344-5.28 3.312-.903.392-1.835.696-2.77.906z"/>
</svg>
