<svg xmlns="http://www.w3.org/2000/svg" width="24" height="24" fill="none" viewBox="0 0 24 24">
  <path fill="#fff"
    d="M10.2 3.6c1.255 0 2.483.357 3.542 1.03 1.058.673 1.903 1.634 2.436 2.77.532 1.135.73 2.4.57 3.643-.161 1.245-.673 2.417-1.475 3.381l4.952 4.951c.106.106.17.248.176.398.007.15-.042.297-.139.412-.096.115-.231.19-.38.21-.149.02-.3-.016-.423-.102l-.084-.068-4.95-4.953c-.815.679-1.781 1.15-2.817 1.376-1.035.226-2.11.2-3.133-.078-1.023-.277-1.964-.796-2.744-1.514-.78-.718-1.375-1.613-1.736-2.61-.36-.997-.476-2.066-.336-3.116.14-1.05.53-2.052 1.14-2.92.608-.868 1.417-1.576 2.357-2.065.94-.49 1.984-.745 3.044-.745zm0 1.2c-1.432 0-2.805.569-3.818 1.582C5.369 7.394 4.8 8.768 4.8 10.2s.57 2.806 1.582 3.819C7.395 15.03 8.768 15.6 10.2 15.6s2.806-.569 3.819-1.582C15.03 13.006 15.6 11.633 15.6 10.2s-.569-2.806-1.581-3.818C13.006 5.369 11.632 4.8 10.2 4.8z" />
</svg>
