<svg xmlns="http://www.w3.org/2000/svg" width="54" height="40" fill="none" viewBox="0 0 54 40">
    <path fill="#333" d="M0 22.894l.122-.094 3.243-.346.112.14c-.075.78-.14 1.56-.196 2.341-.05.774-.075 1.558-.075 2.35v.637l.178.093c.512-.38 1.05-.711 1.612-.992.562-.28 1.168-.421 1.818-.421.6 0 1.1.143 1.5.43.4.288.7.665.9 1.133.206.462.309.962.309 1.498 0 .425-.025.85-.075 1.274-.05.418-.147.833-.29 1.245-.22.68-.594 1.292-1.125 1.835-.531.537-1.147.961-1.847 1.273-.693.313-1.406.469-2.137.469-.319 0-.653-.063-1.003-.188-.35-.124-.643-.371-.88-.74-.238-.374-.357-.914-.357-1.62v-9.128c0-.23-.037-.384-.112-.459-.07-.075-.232-.128-.488-.159S.55 23.378 0 23.297v-.403zm3.29 6.02c-.013.319-.031.684-.056 1.096-.02.412-.028.802-.028 1.17 0 .718.04 1.355.121 1.91.088.556.266.986.535 1.292.268.306.684.46 1.246.46.681 0 1.228-.179 1.64-.535.42-.362.72-.82.9-1.376.188-.555.282-1.127.282-1.713 0-.706-.063-1.264-.188-1.676-.119-.419-.247-.728-.384-.927-.125-.194-.303-.378-.534-.553-.232-.18-.535-.271-.91-.271-.512 0-.987.106-1.424.318-.431.206-.831.474-1.2.805zM14.256 23.587c-.012.318-.13.577-.356.777-.225.2-.49.3-.796.3-.307 0-.57-.11-.788-.328-.219-.219-.328-.48-.328-.787 0-.33.134-.593.403-.786.269-.194.544-.29.825-.29.331 0 .587.112.769.337.18.225.271.484.271.777zm-.271 4.466l-.15 4.026c0 .705.056 1.258.168 1.657.119.394.344.59.675.59.369 0 .69-.084.966-.253.274-.175.54-.377.796-.608l.253.187v.215c-.218.281-.471.565-.759.852-.287.288-.593.528-.918.721-.325.188-.669.281-1.031.281-.27 0-.522-.047-.76-.14-.237-.094-.428-.294-.571-.6-.138-.312-.207-.78-.207-1.404l.122-4.241c0-.5-.05-.896-.15-1.19-.094-.293-.268-.44-.525-.44-.206 0-.456.07-.75.207-.293.13-.556.268-.787.412l-.243-.347c.437-.343.9-.668 1.387-.974.493-.312.925-.468 1.293-.468.438 0 .744.147.919.44.18.294.272.652.272 1.077zM22.055 33.427h.206l.216.225c-.22.33-.475.665-.77 1.002-.293.33-.62.602-.983.814-.356.213-.744.319-1.163.319-.318 0-.596-.075-.834-.225-.237-.15-.422-.418-.553-.805-.125-.393-.187-.952-.187-1.676l.131-7.247c0-.318-.003-.659-.01-1.02-.006-.369-.034-.669-.084-.9-.037-.205-.153-.343-.347-.411-.193-.07-.412-.11-.656-.122-.243-.019-.465-.034-.665-.047v-.44l.112-.094 3.169-.384.112.132c-.037 1.342-.094 2.687-.169 4.035-.068 1.342-.103 2.684-.103 4.026 0 .624-.003 1.217-.01 1.779-.005.562.05 1.02.17 1.376.125.35.38.537.768.562.319 0 .612-.097.881-.29.269-.2.525-.403.769-.609z"/>
    <path fill="#333" d="M25.335 22.473c.294 0 .55.096.769.29.225.193.337.443.337.749 0 .318-.112.602-.337.852-.219.25-.497.374-.834.374-.319 0-.578-.115-.778-.346-.194-.23-.29-.5-.29-.805 0-.306.112-.568.337-.787.224-.218.49-.327.796-.327zm-2.709 5.908l-.253-.347c.27-.206.56-.418.872-.636.319-.225.634-.412.947-.562.312-.156.609-.234.89-.234.463 0 .766.134.91.402.15.269.237.562.262.88.037.206.065.534.084.983.019.444.031.921.038 1.433.006.512.01.983.01 1.414V33.249c0 .331-.01.706-.03 1.124-.018.418-.04.811-.065 1.18-.025.368-.068.636-.13.805-.282.83-.763 1.542-1.444 2.135-.675.599-1.45 1.101-2.325 1.507l-.3-.309c.719-.424 1.275-.858 1.669-1.301.393-.437.656-.89.787-1.358.075-.293.137-.65.187-1.067.05-.419.088-.843.113-1.274.031-.437.053-.84.066-1.208.012-.374.018-.661.018-.86 0-1.162-.015-2.073-.047-2.735-.025-.662-.065-1.145-.122-1.451-.056-.306-.14-.496-.253-.571-.106-.081-.246-.122-.421-.122-.157 0-.378.075-.666.225-.287.15-.553.287-.796.412zM31.606 35.225l-1.34.459-.291-.131c.012-.244.028-.603.047-1.077s.037-.996.056-1.564c.025-.568.044-1.123.056-1.666.013-.543.019-1.005.019-1.386 0-.637-.04-1.164-.122-1.582-.075-.418-.272-.628-.59-.628-.206 0-.428.069-.666.206-.237.131-.497.287-.778.468l-.319-.42c.27-.194.557-.397.863-.61.306-.212.612-.39.918-.533.307-.15.575-.225.806-.225.488 0 .825.128 1.013.384.194.256.315.565.365.927l.16.112c.537-.33 1.121-.643 1.752-.936.638-.3 1.263-.45 1.875-.45.281 0 .553.041.816.122.262.075.484.222.665.44.125.156.212.434.262.834.05.4.082.845.094 1.339.019.493.028.945.028 1.357 0 .962.003 1.717.01 2.266.006.543.068.927.187 1.152.125.224.366.337.722.337.218 0 .468-.081.75-.244.28-.168.543-.343.787-.524h.244l.178.403c-.438.437-.934.83-1.49 1.18-.557.349-1.066.524-1.528.524-.525 0-.888-.166-1.088-.497-.193-.33-.29-.727-.29-1.189l.094-3.277c0-.961-.12-1.716-.357-2.265-.237-.55-.693-.825-1.368-.825-.438 0-.875.125-1.312.375-.431.25-.819.515-1.163.796-.025.693-.053 1.436-.084 2.228-.025.793-.037 1.539-.037 2.238 0 .268.006.555.018.861.013.3.025.64.038 1.02zM44.625 35.843c-.881 0-1.59-.194-2.128-.58-.53-.394-.918-.896-1.162-1.508-.244-.618-.39-1.264-.44-1.938 0-.662.059-1.327.178-1.994.125-.668.418-1.252.88-1.751.45-.5.997-.859 1.64-1.077.644-.225 1.3-.337 1.97-.337.95 0 1.699.212 2.249.637.55.418.943.96 1.18 1.629.245.661.366 1.351.366 2.069 0 .624-.08 1.236-.243 1.835-.157.6-.444 1.136-.863 1.61-.45.512-.996.874-1.64 1.087-.644.212-1.306.318-1.987.318zm-1.922-6.33c-.05.244-.09.487-.121.73-.025.244-.038.494-.038.75 0 .393.038.827.113 1.301.08.475.212.921.393 1.34.188.411.45.751.788 1.02.343.268.778.402 1.303.402.524 0 .95-.115 1.274-.346.325-.231.578-.53.76-.899.18-.374.306-.777.374-1.208.07-.437.103-.855.103-1.254 0-.393-.03-.815-.093-1.264-.063-.456-.181-.89-.356-1.302-.175-.412-.432-.742-.77-.992-.337-.256-.774-.384-1.311-.384-.513 0-1 .172-1.462.515-.457.343-.775.874-.956 1.592zM53.591 15.765c.123-.12.158-.302.088-.458-.07-.156-.229-.252-.4-.24-.172.01-4.25.3-7.977 1.964-.382.17-.754.355-1.119.55.603-.822 1.17-1.692 1.695-2.604 2.567-4.462 3.838-9.423 3.903-9.681.01-.035.015-.072.015-.109 0-.192-.135-.358-.323-.398-.14-.03-.28.015-.376.112-.194.188-3.846 3.784-6.412 8.242-.246.429-.48.863-.702 1.3.078-.97.103-1.835.103-2.544 0-1.687-.132-3.515-.392-5.434-.03-.223-.237-.38-.46-.35-.223.031-.38.237-.35.46.256 1.882.385 3.674.385 5.324 0 3.916-.735 6.833-1.2 8.286-.466-1.451-1.2-4.363-1.2-8.286 0-3.902.728-7.733 1.2-9.803.188.823.417 1.923.623 3.19.036.223.245.374.469.338.222-.036.373-.246.337-.468-.459-2.825-1.03-4.84-1.037-4.86C40.411.12 40.251 0 40.07 0c-.183 0-.343.12-.393.296-.016.057-1.625 5.748-1.625 11.603 0 .904.039 1.754.103 2.542-.222-.436-.456-.87-.702-1.298-2.543-4.418-6.152-7.988-6.405-8.236-.1-.104-.249-.151-.394-.116-.183.044-.312.208-.312.396 0 .038.006.075.015.11.07.277 1.341 5.227 3.903 9.68.525.912 1.092 1.782 1.695 2.604-.365-.195-.737-.38-1.12-.55-3.725-1.663-7.803-1.953-7.975-1.965-.171-.012-.33.085-.4.24-.07.157-.035.34.087.46.056.054 1.403 1.36 3.43 2.73.186.126.44.078.567-.109.126-.187.077-.44-.11-.567-.971-.657-1.79-1.307-2.372-1.797 1.49.209 4.07.695 6.44 1.753 1.106.493 2.14 1.098 3.072 1.797.536.594 1.01 1.06 1.384 1.403-.591-.033-1.4-.122-2.352-.342-.992-.229-1.98-.562-2.939-.99-.702-.313-1.43-.696-2.163-1.139-.193-.116-.444-.055-.56.138-.118.193-.056.444.137.56.762.46 1.52.86 2.253 1.186.529.236 1.067.444 1.61.624-2.448.878-4.316 2.77-4.398 2.855-.104.106-.142.26-.099.402.043.142.16.25.304.282.075.016 1.183.25 2.638.25.93 0 2.002-.095 3.037-.406 1.533-.46 2.594-1.274 3.235-1.906v3.345c0 .225.183.408.409.408.225 0 .408-.183.408-.408V22.49c.64.632 1.703 1.446 3.235 1.906 1.035.31 2.107.407 3.038.407 1.454 0 2.562-.235 2.637-.251.145-.032.261-.14.304-.282.043-.142.005-.296-.099-.402-.082-.084-1.95-1.976-4.397-2.855.543-.18 1.08-.387 1.61-.623 3.726-1.664 6.663-4.505 6.786-4.625zm-15.434 3.237l-.005-.006c-1.177-1.31-2.249-2.8-3.185-4.426-1.684-2.927-2.797-6.072-3.367-7.904 1.3 1.421 3.472 3.979 5.144 6.884.691 1.202 1.285 2.44 1.766 3.683.115.654.24 1.226.358 1.704.103.421.206.794.303 1.118-.297-.288-.64-.638-1.014-1.053zm-1.967 4.613c-1.64.492-3.437.39-4.45.267.776-.66 2.216-1.734 3.86-2.228.297-.089.6-.158.902-.207 1.126.254 2.052.337 2.684.357-.554.568-1.541 1.374-2.996 1.81zm5.08-4.678c.142-.578.26-1.149.358-1.707.48-1.241 1.075-2.48 1.766-3.68 1.671-2.905 3.843-5.463 5.144-6.884-.57 1.832-1.684 4.977-3.368 7.904-.936 1.627-2.008 3.116-3.184 4.426l-.006.006c-.374.416-.717.766-1.014 1.053.097-.323.2-.696.304-1.118zm7.127 4.945c-1.014.123-2.81.225-4.45-.268-1.455-.436-2.442-1.242-2.996-1.81.633-.02 1.559-.103 2.684-.356.303.048.606.117.902.206 1.64.493 3.082 1.567 3.86 2.228zm-4.865-3.248c-.952.22-1.76.31-2.352.342.374-.343.848-.809 1.384-1.403.933-.699 1.966-1.304 3.072-1.797 2.37-1.058 4.949-1.544 6.439-1.753-1.15.969-3.23 2.562-5.604 3.622-.958.427-1.947.76-2.939.99z"/>
</svg>
