<svg xmlns="http://www.w3.org/2000/svg" width="94" height="70" fill="#fff" viewBox="0 0 94 70">
  <path fill="#fff"
    d="M0 40.065l.213-.164 5.676-.607.196.246c-.13 1.366-.246 2.731-.344 4.097-.088 1.354-.131 2.725-.131 4.112v1.114l.311.164c.897-.666 1.838-1.245 2.822-1.737.984-.491 2.045-.737 3.182-.737 1.05 0 1.924.251 2.624.754.7.502 1.225 1.163 1.575 1.982.36.809.541 1.683.541 2.622 0 .743-.043 1.486-.131 2.228-.087.732-.257 1.459-.508 2.18-.383 1.19-1.04 2.26-1.969 3.211-.93.94-2.006 1.682-3.231 2.228-1.214.547-2.46.82-3.74.82-.558 0-1.143-.11-1.755-.328-.612-.218-1.126-.65-1.542-1.294-.415-.656-.623-1.6-.623-2.835V42.145c0-.404-.066-.671-.197-.802-.12-.131-.405-.224-.853-.279C1.668 41.01.962 40.911 0 40.77v-.704zM5.757 50.6c-.021.557-.054 1.196-.098 1.917-.033.721-.05 1.404-.05 2.048 0 1.257.072 2.37.214 3.343.153.972.465 1.726.935 2.261.47.535 1.197.803 2.182.803 1.192 0 2.148-.311 2.87-.934.733-.633 1.258-1.436 1.575-2.409.328-.972.492-1.971.492-2.998 0-1.234-.11-2.212-.328-2.933-.208-.732-.432-1.273-.673-1.622-.218-.339-.53-.661-.935-.967-.404-.317-.935-.475-1.59-.475-.898 0-1.729.186-2.494.557-.755.36-1.454.83-2.1 1.41zM24.949 41.277c-.022.557-.23 1.01-.624 1.36-.393.35-.858.524-1.394.524-.536 0-.995-.19-1.378-.573-.383-.382-.574-.841-.574-1.376 0-.58.235-1.038.706-1.377.47-.338.95-.508 1.443-.508.58 0 1.028.197 1.345.59.317.393.476.847.476 1.36zm-.476 7.816l-.262 7.045c0 1.235.098 2.201.295 2.9.207.689.601 1.033 1.18 1.033.646 0 1.21-.148 1.69-.443.481-.306.946-.66 1.394-1.065l.443.328v.377c-.382.492-.825.989-1.328 1.491-.503.502-1.04.923-1.608 1.262-.568.327-1.17.491-1.804.491-.47 0-.913-.082-1.329-.246-.415-.163-.749-.513-1-1.048-.24-.546-.361-1.366-.361-2.458l.213-7.422c0-.874-.087-1.568-.262-2.081-.164-.514-.47-.77-.919-.77-.36 0-.798.12-1.312.36-.514.23-.973.47-1.378.721l-.426-.606c.765-.601 1.574-1.17 2.427-1.704.864-.547 1.619-.82 2.264-.82.765 0 1.301.257 1.607.77.317.514.476 1.142.476 1.885zM38.596 58.498h.36l.378.393c-.383.579-.831 1.163-1.345 1.753-.514.58-1.088 1.054-1.722 1.426-.624.371-1.302.557-2.034.557-.558 0-1.045-.131-1.46-.393-.416-.263-.738-.732-.968-1.41-.219-.688-.328-1.665-.328-2.932l.23-12.683c0-.556-.006-1.152-.017-1.785-.01-.645-.06-1.17-.147-1.573-.066-.36-.268-.601-.607-.721-.34-.12-.722-.192-1.148-.213-.427-.033-.815-.06-1.165-.082v-.77l.197-.164 5.544-.672.197.23c-.066 2.348-.164 4.702-.296 7.061-.12 2.349-.18 4.697-.18 7.046 0 1.092-.005 2.13-.016 3.113-.011.983.087 1.786.295 2.409.219.611.667.94 1.345.983.558 0 1.072-.17 1.542-.508.47-.35.918-.705 1.345-1.065z" />
  <path fill="#fff"
    d="M44.337 39.327c.514 0 .962.17 1.345.508.393.339.59.776.59 1.311 0 .557-.197 1.054-.59 1.491-.383.437-.87.655-1.46.655-.558 0-1.012-.202-1.361-.606-.34-.404-.509-.874-.509-1.409s.197-.994.59-1.376c.394-.383.859-.574 1.395-.574zm-4.74 10.34l-.444-.607c.47-.36.98-.732 1.526-1.114.558-.393 1.11-.721 1.657-.983.546-.273 1.066-.41 1.558-.41.81 0 1.34.235 1.59.705.263.47.416.983.46 1.54.066.36.115.934.148 1.72.033.776.055 1.611.065 2.507.011.896.017 1.72.017 2.474v2.688c0 .578-.017 1.234-.05 1.966-.032.732-.07 1.42-.114 2.064-.044.645-.12 1.114-.23 1.41-.492 1.452-1.334 2.697-2.526 3.735-1.18 1.049-2.537 1.928-4.068 2.638l-.525-.54c1.258-.743 2.231-1.502 2.92-2.278.689-.765 1.148-1.557 1.378-2.376.131-.513.24-1.136.328-1.868.087-.732.153-1.474.197-2.228.054-.765.093-1.47.115-2.114.022-.655.032-1.158.032-1.507 0-2.032-.027-3.627-.082-4.785-.043-1.158-.114-2.004-.213-2.54-.098-.535-.246-.868-.443-.999-.186-.142-.432-.213-.738-.213-.273 0-.661.131-1.164.393-.504.263-.968.503-1.395.721zM55.31 61.644l-2.345.803-.509-.23c.022-.426.05-1.054.082-1.884.033-.83.066-1.742.099-2.736.043-.994.076-1.967.098-2.917.022-.95.033-1.759.033-2.425 0-1.114-.071-2.037-.214-2.769-.13-.732-.475-1.098-1.033-1.098-.36 0-.749.12-1.164.36-.416.23-.87.503-1.362.82l-.558-.737c.47-.339.974-.694 1.51-1.065.535-.372 1.071-.683 1.607-.934.536-.263 1.006-.394 1.41-.394.854 0 1.444.224 1.772.672.34.448.552.989.64 1.622l.279.197c.94-.579 1.962-1.125 3.067-1.639 1.115-.524 2.209-.786 3.28-.786.493 0 .968.071 1.428.213.459.131.847.388 1.164.77.219.273.372.76.46 1.458.087.7.142 1.48.163 2.343.033.863.05 1.655.05 2.376 0 1.682.005 3.004.016 3.965.011.95.12 1.623.328 2.016.219.393.64.59 1.263.59.383 0 .82-.142 1.312-.426.492-.295.952-.601 1.378-.918h.427l.311.705c-.765.764-1.635 1.452-2.608 2.064-.973.612-1.864.918-2.673.918-.919 0-1.553-.29-1.903-.869-.34-.579-.509-1.272-.509-2.08l.164-5.735c0-1.683-.207-3.004-.623-3.966-.415-.96-1.214-1.441-2.395-1.441-.765 0-1.53.218-2.296.655-.755.437-1.433.901-2.034 1.393-.044 1.212-.093 2.512-.148 3.9-.043 1.387-.065 2.692-.065 3.915 0 .47.01.972.033 1.508.022.524.043 1.12.065 1.786zM78.094 62.725c-1.542 0-2.783-.339-3.724-1.016-.93-.688-1.607-1.567-2.034-2.638-.426-1.081-.683-2.212-.77-3.391 0-1.158.103-2.322.311-3.49.219-1.17.733-2.19 1.542-3.064.787-.874 1.744-1.502 2.87-1.885 1.127-.393 2.275-.59 3.445-.59 1.662 0 2.974.372 3.937 1.115.962.732 1.65 1.682 2.066 2.85.427 1.159.64 2.365.64 3.622 0 1.092-.142 2.163-.426 3.211-.274 1.049-.777 1.988-1.51 2.818-.787.896-1.744 1.53-2.87 1.901-1.126.371-2.285.557-3.477.557zM74.73 51.65c-.087.426-.158.852-.213 1.278-.044.426-.066.863-.066 1.31 0 .689.066 1.448.197 2.278.142.83.372 1.611.689 2.343.328.721.787 1.317 1.378 1.786.601.47 1.361.705 2.28.705.918 0 1.662-.202 2.23-.606.57-.405 1.012-.929 1.33-1.573.316-.656.535-1.36.655-2.114.12-.765.18-1.497.18-2.196 0-.688-.054-1.425-.163-2.212-.11-.797-.317-1.556-.624-2.277-.306-.721-.754-1.3-1.345-1.737-.59-.448-1.356-.672-2.296-.672-.897 0-1.75.3-2.559.901-.798.601-1.356 1.53-1.673 2.786zM93.784 27.589c.215-.209.276-.53.154-.802-.123-.273-.4-.442-.7-.421-.302.02-7.438.528-13.96 3.438-.667.298-1.32.62-1.957.962 1.055-1.438 2.047-2.96 2.965-4.557 4.493-7.808 6.717-16.49 6.83-16.941.017-.062.026-.126.026-.19 0-.337-.235-.627-.564-.697-.244-.053-.491.026-.659.196-.338.33-6.73 6.621-11.22 14.424-.431.75-.84 1.509-1.229 2.273.136-1.695.18-3.21.18-4.45 0-2.953-.23-6.152-.686-9.51-.053-.39-.415-.664-.804-.611-.391.053-.666.412-.613.803.447 3.294.674 6.43.674 9.318 0 6.852-1.288 11.956-2.102 14.5-.815-2.54-2.1-7.635-2.1-14.5 0-6.829 1.276-13.533 2.102-17.156.33 1.44.73 3.365 1.09 5.584.063.389.43.653.82.59.39-.063.654-.43.591-.819-.803-4.944-1.805-8.47-1.815-8.505C70.72.21 70.44 0 70.12 0c-.32 0-.6.211-.687.518-.029.1-2.844 10.058-2.844 20.306 0 1.581.068 3.068.18 4.448-.389-.763-.797-1.522-1.229-2.271-4.449-7.732-10.765-13.98-11.209-14.414-.172-.182-.434-.265-.688-.203-.32.078-.546.364-.546.694 0 .065.01.13.027.192.122.485 2.346 9.147 6.83 16.939.917 1.596 1.91 3.119 2.965 4.557-.638-.341-1.29-.664-1.958-.962-6.52-2.91-13.658-3.418-13.959-3.438-.299-.02-.578.148-.7.42-.122.274-.061.594.153.803.099.096 2.455 2.381 6.002 4.78.326.22.77.135.992-.192.221-.326.136-.77-.191-.991-1.7-1.15-3.134-2.288-4.151-3.146 2.607.365 7.122 1.216 11.27 3.068 1.935.863 3.743 1.922 5.376 3.145.937 1.039 1.767 1.854 2.422 2.454-1.035-.056-2.45-.212-4.116-.597-1.736-.4-3.467-.984-5.144-1.732-1.229-.549-2.502-1.22-3.785-1.994-.338-.204-.777-.096-.982.242-.204.337-.095.776.242.98 1.334.805 2.66 1.503 3.942 2.075.925.414 1.867.777 2.817 1.092-4.284 1.537-7.552 4.848-7.696 4.996-.181.186-.248.456-.173.704.075.249.279.437.533.492.13.029 2.069.44 4.615.44 1.628 0 3.505-.168 5.315-.712 2.683-.805 4.54-2.23 5.662-3.336v5.854c0 .395.32.714.715.714.395 0 .715-.32.715-.714v-5.853c1.12 1.105 2.979 2.53 5.661 3.335 1.811.544 3.687.712 5.316.712 2.545 0 4.484-.411 4.615-.44.254-.055.458-.243.532-.492.075-.248.009-.518-.172-.703-.145-.149-3.413-3.46-7.696-4.997.95-.314 1.891-.678 2.816-1.091 6.521-2.91 11.662-7.883 11.877-8.093zm-27.009 5.665l-.01-.011c-2.06-2.293-3.934-4.898-5.572-7.746-2.947-5.121-4.896-10.626-5.894-13.831 2.277 2.487 6.076 6.962 9.002 12.046 1.21 2.104 2.25 4.272 3.091 6.445.202 1.146.42 2.146.626 2.983.181.737.362 1.39.531 1.956-.52-.503-1.12-1.116-1.774-1.842zm-3.443 8.071c-2.871.863-6.014.683-7.788.468 1.359-1.155 3.879-3.034 6.756-3.898.519-.156 1.05-.276 1.579-.362 1.97.444 3.59.588 4.696.623-.969.995-2.697 2.405-5.243 3.17zm8.89-8.184c.248-1.012.455-2.012.627-2.988.841-2.172 1.88-4.339 3.09-6.44 2.925-5.085 6.725-9.56 9.002-12.047-.998 3.205-2.947 8.71-5.894 13.831-1.638 2.848-3.513 5.454-5.572 7.746l-.01.011c-.655.727-1.255 1.34-1.775 1.842.17-.565.35-1.218.532-1.955zm12.472 8.652c-1.774.215-4.916.394-7.786-.468-2.547-.764-4.275-2.174-5.244-3.169 1.107-.035 2.727-.18 4.697-.623.53.086 1.06.206 1.579.362 2.87.862 5.393 2.742 6.754 3.898zm-8.513-5.683c-1.666.385-3.08.54-4.116.597.654-.6 1.484-1.414 2.422-2.454 1.633-1.223 3.44-2.282 5.375-3.145 4.148-1.852 8.661-2.703 11.269-3.068-2.011 1.695-5.654 4.484-9.807 6.338-1.676.748-3.407 1.331-5.143 1.732z" />
</svg>
