<svg xmlns="http://www.w3.org/2000/svg" width="54" height="54" fill="none" viewBox="0 0 54 54">
    <path fill="#8EA84F" d="M27 54c14.912 0 27-12.088 27-27S41.912 0 27 0 0 12.088 0 27s12.088 27 27 27z"/>
    <path fill="#fff" d="M33.6 19.8c.796 0 1.559.316 2.121.879.563.562.879 1.325.879 2.121v9.6c0 .796-.316 1.559-.879 2.121-.562.563-1.325.879-2.121.879H20.4c-.796 0-1.559-.316-2.121-.879-.563-.562-.88-1.325-.88-2.121v-9.6c0-.796.317-1.559.88-2.121.562-.563 1.325-.879 2.12-.879h13.2zm1.8 4.753l-8.095 4.764c-.077.045-.162.073-.25.08-.09.008-.178-.003-.261-.034l-.099-.046-8.095-4.761V32.4c0 .477.19.935.527 1.273.338.337.796.527 1.273.527h13.2c.477 0 .935-.19 1.273-.527.337-.338.527-.796.527-1.273v-7.847zM33.6 21H20.4c-.477 0-.935.19-1.273.527-.337.338-.527.796-.527 1.273v.362l8.4 4.942 8.4-4.944v-.36c0-.477-.19-.935-.527-1.273-.338-.337-.796-.527-1.273-.527z"/>
</svg>
