<svg xmlns="http://www.w3.org/2000/svg" width="54" height="54" fill="none" viewBox="0 0 54 54">
    <path fill="#8EA84F" d="M27 54c14.912 0 27-12.088 27-27S41.912 0 27 0 0 12.088 0 27s12.088 27 27 27z"/>
    <path fill="#fff" d="M23.384 17.48l-.859.258c-.766.231-1.45.676-1.972 1.283-.522.607-.86 1.35-.974 2.142-.356 2.482.44 5.383 2.362 8.71 1.916 3.32 4.026 5.458 6.348 6.394.746.301 1.563.381 2.353.231.79-.15 1.52-.523 2.105-1.076l.651-.617c.423-.4.685-.94.74-1.519.054-.578-.104-1.157-.444-1.629l-1.628-2.256c-.22-.304-.53-.532-.885-.652-.357-.12-.741-.125-1.1-.015l-2.462.752-.063.012c-.271.04-.897-.547-1.677-1.898-.816-1.414-.986-2.24-.76-2.454l1.252-1.168c.458-.426.77-.986.894-1.6.123-.612.052-1.249-.205-1.82l-.792-1.765c-.239-.532-.663-.958-1.194-1.2-.53-.242-1.13-.282-1.688-.114h-.002zm1.788 1.805l.794 1.765c.154.343.197.725.123 1.093-.074.368-.261.703-.536.96l-1.255 1.168c-.804.76-.538 2.06.54 3.929 1.017 1.76 1.944 2.628 2.938 2.477l.15-.032 2.505-.764c.12-.037.248-.035.367.005s.222.116.295.217l1.628 2.256c.17.236.249.526.222.815-.027.29-.159.56-.37.76l-.652.616c-.417.395-.939.662-1.503.769-.564.107-1.148.05-1.68-.165-2.038-.82-3.964-2.773-5.758-5.88-1.797-3.114-2.525-5.762-2.213-7.94.082-.567.323-1.098.696-1.531.372-.434.862-.751 1.41-.916l.86-.26c.278-.083.578-.063.843.058s.477.334.596.6z"/>
</svg>
